<svg id="visual" viewBox="0 0 1920 1080" width="1920" height="1080" xmlns="http://www.w3.org/2000/svg" xmlns:xlink="http://www.w3.org/1999/xlink" version="1.1"><rect x="0" y="0" width="1920" height="1080" fill="#ffffff"></rect><path d="M632 0L608 0L608 47L693 47L693 94L589 94L589 141L461 141L461 188L499 188L499 235L579 235L579 282L342 282L342 329L454 329L454 376L337 376L337 423L429 423L429 470L307 470L307 517L646 517L646 563L390 563L390 610L697 610L697 657L447 657L447 704L358 704L358 751L686 751L686 798L310 798L310 845L377 845L377 892L517 892L517 939L677 939L677 986L315 986L315 1033L760 1033L760 1080L0 1080L0 1033L0 1033L0 986L0 986L0 939L0 939L0 892L0 892L0 845L0 845L0 798L0 798L0 751L0 751L0 704L0 704L0 657L0 657L0 610L0 610L0 563L0 563L0 517L0 517L0 470L0 470L0 423L0 423L0 376L0 376L0 329L0 329L0 282L0 282L0 235L0 235L0 188L0 188L0 141L0 141L0 94L0 94L0 47L0 47L0 0L0 0Z" fill="#8b8f96"></path><path d="M349 0L353 0L353 47L371 47L371 94L441 94L441 141L477 141L477 188L659 188L659 235L659 235L659 282L628 282L628 329L689 329L689 376L454 376L454 423L553 423L553 470L444 470L444 517L410 517L410 563L374 563L374 610L305 610L305 657L690 657L690 704L682 704L682 751L357 751L357 798L519 798L519 845L498 845L498 892L244 892L244 939L685 939L685 986L429 986L429 1033L612 1033L612 1080L0 1080L0 1033L0 1033L0 986L0 986L0 939L0 939L0 892L0 892L0 845L0 845L0 798L0 798L0 751L0 751L0 704L0 704L0 657L0 657L0 610L0 610L0 563L0 563L0 517L0 517L0 470L0 470L0 423L0 423L0 376L0 376L0 329L0 329L0 282L0 282L0 235L0 235L0 188L0 188L0 141L0 141L0 94L0 94L0 47L0 47L0 0L0 0Z" fill="#848890"></path><path d="M533 0L329 0L329 47L532 47L532 94L322 94L322 141L257 141L257 188L551 188L551 235L257 235L257 282L453 282L453 329L492 329L492 376L302 376L302 423L483 423L483 470L455 470L455 517L584 517L584 563L597 563L597 610L523 610L523 657L579 657L579 704L607 704L607 751L470 751L470 798L325 798L325 845L511 845L511 892L336 892L336 939L384 939L384 986L375 986L375 1033L564 1033L564 1080L0 1080L0 1033L0 1033L0 986L0 986L0 939L0 939L0 892L0 892L0 845L0 845L0 798L0 798L0 751L0 751L0 704L0 704L0 657L0 657L0 610L0 610L0 563L0 563L0 517L0 517L0 470L0 470L0 423L0 423L0 376L0 376L0 329L0 329L0 282L0 282L0 235L0 235L0 188L0 188L0 141L0 141L0 94L0 94L0 47L0 47L0 0L0 0Z" fill="#7d8189"></path><path d="M310 0L341 0L341 47L266 47L266 94L454 94L454 141L540 141L540 188L472 188L472 235L316 235L316 282L389 282L389 329L229 329L229 376L271 376L271 423L267 423L267 470L484 470L484 517L355 517L355 563L583 563L583 610L392 610L392 657L356 657L356 704L445 704L445 751L374 751L374 798L312 798L312 845L359 845L359 892L221 892L221 939L491 939L491 986L584 986L584 1033L315 1033L315 1080L0 1080L0 1033L0 1033L0 986L0 986L0 939L0 939L0 892L0 892L0 845L0 845L0 798L0 798L0 751L0 751L0 704L0 704L0 657L0 657L0 610L0 610L0 563L0 563L0 517L0 517L0 470L0 470L0 423L0 423L0 376L0 376L0 329L0 329L0 282L0 282L0 235L0 235L0 188L0 188L0 141L0 141L0 94L0 94L0 47L0 47L0 0L0 0Z" fill="#777b83"></path><path d="M194 0L387 0L387 47L451 47L451 94L371 94L371 141L173 141L173 188L372 188L372 235L318 235L318 282L451 282L451 329L341 329L341 376L407 376L407 423L419 423L419 470L174 470L174 517L380 517L380 563L176 563L176 610L253 610L253 657L526 657L526 704L385 704L385 751L333 751L333 798L219 798L219 845L273 845L273 892L407 892L407 939L237 939L237 986L381 986L381 1033L287 1033L287 1080L0 1080L0 1033L0 1033L0 986L0 986L0 939L0 939L0 892L0 892L0 845L0 845L0 798L0 798L0 751L0 751L0 704L0 704L0 657L0 657L0 610L0 610L0 563L0 563L0 517L0 517L0 470L0 470L0 423L0 423L0 376L0 376L0 329L0 329L0 282L0 282L0 235L0 235L0 188L0 188L0 141L0 141L0 94L0 94L0 47L0 47L0 0L0 0Z" fill="#70747c"></path><path d="M333 0L233 0L233 47L202 47L202 94L420 94L420 141L329 141L329 188L329 188L329 235L268 235L268 282L335 282L335 329L165 329L165 376L390 376L390 423L452 423L452 470L296 470L296 517L418 517L418 563L380 563L380 610L378 610L378 657L455 657L455 704L446 704L446 751L387 751L387 798L420 798L420 845L471 845L471 892L434 892L434 939L264 939L264 986L226 986L226 1033L159 1033L159 1080L0 1080L0 1033L0 1033L0 986L0 986L0 939L0 939L0 892L0 892L0 845L0 845L0 798L0 798L0 751L0 751L0 704L0 704L0 657L0 657L0 610L0 610L0 563L0 563L0 517L0 517L0 470L0 470L0 423L0 423L0 376L0 376L0 329L0 329L0 282L0 282L0 235L0 235L0 188L0 188L0 141L0 141L0 94L0 94L0 47L0 47L0 0L0 0Z" fill="#696d76"></path><path d="M144 0L348 0L348 47L307 47L307 94L239 94L239 141L134 141L134 188L391 188L391 235L233 235L233 282L388 282L388 329L166 329L166 376L257 376L257 423L411 423L411 470L343 470L343 517L146 517L146 563L315 563L315 610L173 610L173 657L283 657L283 704L218 704L218 751L134 751L134 798L216 798L216 845L244 845L244 892L345 892L345 939L275 939L275 986L345 986L345 1033L165 1033L165 1080L0 1080L0 1033L0 1033L0 986L0 986L0 939L0 939L0 892L0 892L0 845L0 845L0 798L0 798L0 751L0 751L0 704L0 704L0 657L0 657L0 610L0 610L0 563L0 563L0 517L0 517L0 470L0 470L0 423L0 423L0 376L0 376L0 329L0 329L0 282L0 282L0 235L0 235L0 188L0 188L0 141L0 141L0 94L0 94L0 47L0 47L0 0L0 0Z" fill="#636770"></path><path d="M118 0L337 0L337 47L161 47L161 94L258 94L258 141L330 141L330 188L321 188L321 235L347 235L347 282L244 282L244 329L110 329L110 376L304 376L304 423L256 423L256 470L216 470L216 517L140 517L140 563L177 563L177 610L194 610L194 657L112 657L112 704L118 704L118 751L138 751L138 798L205 798L205 845L184 845L184 892L108 892L108 939L287 939L287 986L212 986L212 1033L335 1033L335 1080L0 1080L0 1033L0 1033L0 986L0 986L0 939L0 939L0 892L0 892L0 845L0 845L0 798L0 798L0 751L0 751L0 704L0 704L0 657L0 657L0 610L0 610L0 563L0 563L0 517L0 517L0 470L0 470L0 423L0 423L0 376L0 376L0 329L0 329L0 282L0 282L0 235L0 235L0 188L0 188L0 141L0 141L0 94L0 94L0 47L0 47L0 0L0 0Z" fill="#5e626a"></path><path d="M271 0L108 0L108 47L253 47L253 94L183 94L183 141L86 141L86 188L91 188L91 235L148 235L148 282L135 282L135 329L174 329L174 376L188 376L188 423L134 423L134 470L181 470L181 517L187 517L187 563L201 563L201 610L147 610L147 657L98 657L98 704L85 704L85 751L191 751L191 798L254 798L254 845L272 845L272 892L202 892L202 939L140 939L140 986L196 986L196 1033L101 1033L101 1080L0 1080L0 1033L0 1033L0 986L0 986L0 939L0 939L0 892L0 892L0 845L0 845L0 798L0 798L0 751L0 751L0 704L0 704L0 657L0 657L0 610L0 610L0 563L0 563L0 517L0 517L0 470L0 470L0 423L0 423L0 376L0 376L0 329L0 329L0 282L0 282L0 235L0 235L0 188L0 188L0 141L0 141L0 94L0 94L0 47L0 47L0 0L0 0Z" fill="#5a5d65"></path><path d="M109 0L109 0L109 47L73 47L73 94L135 94L135 141L68 141L68 188L49 188L49 235L103 235L103 282L67 282L67 329L222 329L222 376L85 376L85 423L179 423L179 470L94 470L94 517L160 517L160 563L169 563L169 610L211 610L211 657L182 657L182 704L208 704L208 751L130 751L130 798L101 798L101 845L68 845L68 892L216 892L216 939L114 939L114 986L57 986L57 1033L220 1033L220 1080L0 1080L0 1033L0 1033L0 986L0 986L0 939L0 939L0 892L0 892L0 845L0 845L0 798L0 798L0 751L0 751L0 704L0 704L0 657L0 657L0 610L0 610L0 563L0 563L0 517L0 517L0 470L0 470L0 423L0 423L0 376L0 376L0 329L0 329L0 282L0 282L0 235L0 235L0 188L0 188L0 141L0 141L0 94L0 94L0 47L0 47L0 0L0 0Z" fill="#55585f"></path><path d="M121 0L143 0L143 47L96 47L96 94L165 94L165 141L165 141L165 188L129 188L129 235L45 235L45 282L161 282L161 329L83 329L83 376L34 376L34 423L113 423L113 470L175 470L175 517L129 517L129 563L142 563L142 610L37 610L37 657L60 657L60 704L29 704L29 751L49 751L49 798L108 798L108 845L34 845L34 892L34 892L34 939L138 939L138 986L133 986L133 1033L41 1033L41 1080L0 1080L0 1033L0 1033L0 986L0 986L0 939L0 939L0 892L0 892L0 845L0 845L0 798L0 798L0 751L0 751L0 704L0 704L0 657L0 657L0 610L0 610L0 563L0 563L0 517L0 517L0 470L0 470L0 423L0 423L0 376L0 376L0 329L0 329L0 282L0 282L0 235L0 235L0 188L0 188L0 141L0 141L0 94L0 94L0 47L0 47L0 0L0 0Z" fill="#50535a"></path><path d="M7 0L78 0L78 47L82 47L82 94L90 94L90 141L77 141L77 188L89 188L89 235L101 235L101 282L88 282L88 329L94 329L94 376L21 376L21 423L115 423L115 470L46 470L46 517L107 517L107 563L28 563L28 610L97 610L97 657L43 657L43 704L48 704L48 751L25 751L25 798L29 798L29 845L78 845L78 892L74 892L74 939L50 939L50 986L100 986L100 1033L115 1033L115 1080L0 1080L0 1033L0 1033L0 986L0 986L0 939L0 939L0 892L0 892L0 845L0 845L0 798L0 798L0 751L0 751L0 704L0 704L0 657L0 657L0 610L0 610L0 563L0 563L0 517L0 517L0 470L0 470L0 423L0 423L0 376L0 376L0 329L0 329L0 282L0 282L0 235L0 235L0 188L0 188L0 141L0 141L0 94L0 94L0 47L0 47L0 0L0 0Z" fill="#4b4e54"></path></svg>