<svg id="visual" viewBox="0 0 1920 1080" width="1920" height="1080" xmlns="http://www.w3.org/2000/svg" xmlns:xlink="http://www.w3.org/1999/xlink" version="1.1"><path d="M0 23L83 23L83 55L167 55L167 55L250 55L250 44L334 44L334 77L417 77L417 44L501 44L501 55L584 55L584 66L668 66L668 55L751 55L751 23L835 23L835 66L918 66L918 66L1002 66L1002 44L1085 44L1085 23L1169 23L1169 66L1252 66L1252 77L1336 77L1336 33L1419 33L1419 66L1503 66L1503 33L1586 33L1586 33L1670 33L1670 66L1753 66L1753 87L1837 87L1837 55L1920 55L1920 66L1920 0L1920 0L1837 0L1837 0L1753 0L1753 0L1670 0L1670 0L1586 0L1586 0L1503 0L1503 0L1419 0L1419 0L1336 0L1336 0L1252 0L1252 0L1169 0L1169 0L1085 0L1085 0L1002 0L1002 0L918 0L918 0L835 0L835 0L751 0L751 0L668 0L668 0L584 0L584 0L501 0L501 0L417 0L417 0L334 0L334 0L250 0L250 0L167 0L167 0L83 0L83 0L0 0Z" fill="#8b8f96"></path><path d="M0 228L83 228L83 109L167 109L167 185L250 185L250 195L334 195L334 206L417 206L417 141L501 141L501 141L584 141L584 239L668 239L668 195L751 195L751 131L835 131L835 271L918 271L918 131L1002 131L1002 206L1085 206L1085 185L1169 185L1169 174L1252 174L1252 163L1336 163L1336 174L1419 174L1419 282L1503 282L1503 98L1586 98L1586 98L1670 98L1670 249L1753 249L1753 174L1837 174L1837 239L1920 239L1920 120L1920 64L1920 53L1837 53L1837 85L1753 85L1753 64L1670 64L1670 31L1586 31L1586 31L1503 31L1503 64L1419 64L1419 31L1336 31L1336 75L1252 75L1252 64L1169 64L1169 21L1085 21L1085 42L1002 42L1002 64L918 64L918 64L835 64L835 21L751 21L751 53L668 53L668 64L584 64L584 53L501 53L501 42L417 42L417 75L334 75L334 42L250 42L250 53L167 53L167 53L83 53L83 21L0 21Z" fill="#83878e"></path><path d="M0 303L83 303L83 174L167 174L167 260L250 260L250 260L334 260L334 239L417 239L417 206L501 206L501 185L584 185L584 293L668 293L668 282L751 282L751 206L835 206L835 293L918 293L918 174L1002 174L1002 303L1085 303L1085 217L1169 217L1169 239L1252 239L1252 249L1336 249L1336 271L1419 271L1419 347L1503 347L1503 152L1586 152L1586 185L1670 185L1670 282L1753 282L1753 217L1837 217L1837 282L1920 282L1920 217L1920 118L1920 237L1837 237L1837 172L1753 172L1753 247L1670 247L1670 96L1586 96L1586 96L1503 96L1503 280L1419 280L1419 172L1336 172L1336 161L1252 161L1252 172L1169 172L1169 183L1085 183L1085 204L1002 204L1002 129L918 129L918 269L835 269L835 129L751 129L751 193L668 193L668 237L584 237L584 139L501 139L501 139L417 139L417 204L334 204L334 193L250 193L250 183L167 183L167 107L83 107L83 226L0 226Z" fill="#7a7e86"></path><path d="M0 379L83 379L83 249L167 249L167 336L250 336L250 303L334 303L334 282L417 282L417 282L501 282L501 228L584 228L584 368L668 368L668 347L751 347L751 228L835 228L835 336L918 336L918 206L1002 206L1002 357L1085 357L1085 271L1169 271L1169 303L1252 303L1252 325L1336 325L1336 293L1419 293L1419 390L1503 390L1503 195L1586 195L1586 249L1670 249L1670 303L1753 303L1753 293L1837 293L1837 303L1920 303L1920 271L1920 215L1920 280L1837 280L1837 215L1753 215L1753 280L1670 280L1670 183L1586 183L1586 150L1503 150L1503 345L1419 345L1419 269L1336 269L1336 247L1252 247L1252 237L1169 237L1169 215L1085 215L1085 301L1002 301L1002 172L918 172L918 291L835 291L835 204L751 204L751 280L668 280L668 291L584 291L584 183L501 183L501 204L417 204L417 237L334 237L334 258L250 258L250 258L167 258L167 172L83 172L83 301L0 301Z" fill="#72767e"></path><path d="M0 433L83 433L83 336L167 336L167 433L250 433L250 390L334 390L334 379L417 379L417 336L501 336L501 271L584 271L584 465L668 465L668 390L751 390L751 336L835 336L835 368L918 368L918 282L1002 282L1002 390L1085 390L1085 314L1169 314L1169 357L1252 357L1252 368L1336 368L1336 390L1419 390L1419 465L1503 465L1503 282L1586 282L1586 325L1670 325L1670 357L1753 357L1753 390L1837 390L1837 368L1920 368L1920 347L1920 269L1920 301L1837 301L1837 291L1753 291L1753 301L1670 301L1670 247L1586 247L1586 193L1503 193L1503 388L1419 388L1419 291L1336 291L1336 323L1252 323L1252 301L1169 301L1169 269L1085 269L1085 355L1002 355L1002 204L918 204L918 334L835 334L835 226L751 226L751 345L668 345L668 366L584 366L584 226L501 226L501 280L417 280L417 280L334 280L334 301L250 301L250 334L167 334L167 247L83 247L83 377L0 377Z" fill="#6a6e77"></path><path d="M0 595L83 595L83 627L167 627L167 638L250 638L250 519L334 519L334 563L417 563L417 681L501 681L501 411L584 411L584 692L668 692L668 584L751 584L751 606L835 606L835 671L918 671L918 703L1002 703L1002 606L1085 606L1085 681L1169 681L1169 584L1252 584L1252 595L1336 595L1336 703L1419 703L1419 692L1503 692L1503 627L1586 627L1586 649L1670 649L1670 671L1753 671L1753 573L1837 573L1837 735L1920 735L1920 638L1920 345L1920 366L1837 366L1837 388L1753 388L1753 355L1670 355L1670 323L1586 323L1586 280L1503 280L1503 463L1419 463L1419 388L1336 388L1336 366L1252 366L1252 355L1169 355L1169 312L1085 312L1085 388L1002 388L1002 280L918 280L918 366L835 366L835 334L751 334L751 388L668 388L668 463L584 463L584 269L501 269L501 334L417 334L417 377L334 377L334 388L250 388L250 431L167 431L167 334L83 334L83 431L0 431Z" fill="#63676f"></path><path d="M0 757L83 757L83 703L167 703L167 768L250 768L250 649L334 649L334 692L417 692L417 768L501 768L501 487L584 487L584 811L668 811L668 725L751 725L751 714L835 714L835 757L918 757L918 843L1002 843L1002 714L1085 714L1085 779L1169 779L1169 671L1252 671L1252 660L1336 660L1336 757L1419 757L1419 779L1503 779L1503 789L1586 789L1586 735L1670 735L1670 811L1753 811L1753 692L1837 692L1837 811L1920 811L1920 714L1920 636L1920 733L1837 733L1837 571L1753 571L1753 669L1670 669L1670 647L1586 647L1586 625L1503 625L1503 690L1419 690L1419 701L1336 701L1336 593L1252 593L1252 582L1169 582L1169 679L1085 679L1085 604L1002 604L1002 701L918 701L918 669L835 669L835 604L751 604L751 582L668 582L668 690L584 690L584 409L501 409L501 679L417 679L417 561L334 561L334 517L250 517L250 636L167 636L167 625L83 625L83 593L0 593Z" fill="#5d6168"></path><path d="M0 800L83 800L83 725L167 725L167 822L250 822L250 681L334 681L334 735L417 735L417 833L501 833L501 530L584 530L584 919L668 919L668 789L751 789L751 822L835 822L835 887L918 887L918 897L1002 897L1002 811L1085 811L1085 887L1169 887L1169 768L1252 768L1252 735L1336 735L1336 800L1419 800L1419 876L1503 876L1503 822L1586 822L1586 811L1670 811L1670 919L1753 919L1753 789L1837 789L1837 941L1920 941L1920 735L1920 712L1920 809L1837 809L1837 690L1753 690L1753 809L1670 809L1670 733L1586 733L1586 787L1503 787L1503 777L1419 777L1419 755L1336 755L1336 658L1252 658L1252 669L1169 669L1169 777L1085 777L1085 712L1002 712L1002 841L918 841L918 755L835 755L835 712L751 712L751 723L668 723L668 809L584 809L584 485L501 485L501 766L417 766L417 690L334 690L334 647L250 647L250 766L167 766L167 701L83 701L83 755L0 755Z" fill="#575a62"></path><path d="M0 865L83 865L83 800L167 800L167 854L250 854L250 811L334 811L334 811L417 811L417 973L501 973L501 681L584 681L584 973L668 973L668 897L751 897L751 930L835 930L835 930L918 930L918 984L1002 984L1002 951L1085 951L1085 941L1169 941L1169 865L1252 865L1252 800L1336 800L1336 865L1419 865L1419 941L1503 941L1503 930L1586 930L1586 897L1670 897L1670 973L1753 973L1753 843L1837 843L1837 973L1920 973L1920 865L1920 733L1920 939L1837 939L1837 787L1753 787L1753 917L1670 917L1670 809L1586 809L1586 820L1503 820L1503 874L1419 874L1419 798L1336 798L1336 733L1252 733L1252 766L1169 766L1169 885L1085 885L1085 809L1002 809L1002 895L918 895L918 885L835 885L835 820L751 820L751 787L668 787L668 917L584 917L584 528L501 528L501 831L417 831L417 733L334 733L334 679L250 679L250 820L167 820L167 723L83 723L83 798L0 798Z" fill="#51545b"></path><path d="M0 1081L83 1081L83 1081L167 1081L167 1081L250 1081L250 1081L334 1081L334 1081L417 1081L417 1081L501 1081L501 1081L584 1081L584 1081L668 1081L668 1081L751 1081L751 1081L835 1081L835 1081L918 1081L918 1081L1002 1081L1002 1081L1085 1081L1085 1081L1169 1081L1169 1081L1252 1081L1252 1081L1336 1081L1336 1081L1419 1081L1419 1081L1503 1081L1503 1081L1586 1081L1586 1081L1670 1081L1670 1081L1753 1081L1753 1081L1837 1081L1837 1081L1920 1081L1920 1081L1920 863L1920 971L1837 971L1837 841L1753 841L1753 971L1670 971L1670 895L1586 895L1586 928L1503 928L1503 939L1419 939L1419 863L1336 863L1336 798L1252 798L1252 863L1169 863L1169 939L1085 939L1085 949L1002 949L1002 982L918 982L918 928L835 928L835 928L751 928L751 895L668 895L668 971L584 971L584 679L501 679L501 971L417 971L417 809L334 809L334 809L250 809L250 852L167 852L167 798L83 798L83 863L0 863Z" fill="#4b4e54"></path></svg>