<svg id="visual" viewBox="0 0 1920 1080" width="1920" height="1080" xmlns="http://www.w3.org/2000/svg" xmlns:xlink="http://www.w3.org/1999/xlink" version="1.1"><rect x="0" y="0" width="1920" height="1080" fill="#ffffff"></rect><path d="M847 0L933 0L933 47L922 47L922 94L707 94L707 141L852 141L852 188L657 188L657 235L886 235L886 282L564 282L564 329L1113 329L1113 376L995 376L995 423L485 423L485 470L675 470L675 517L579 517L579 563L925 563L925 610L726 610L726 657L889 657L889 704L786 704L786 751L1086 751L1086 798L691 798L691 845L813 845L813 892L541 892L541 939L1061 939L1061 986L808 986L808 1033L1136 1033L1136 1080L0 1080L0 1033L0 1033L0 986L0 986L0 939L0 939L0 892L0 892L0 845L0 845L0 798L0 798L0 751L0 751L0 704L0 704L0 657L0 657L0 610L0 610L0 563L0 563L0 517L0 517L0 470L0 470L0 423L0 423L0 376L0 376L0 329L0 329L0 282L0 282L0 235L0 235L0 188L0 188L0 141L0 141L0 94L0 94L0 47L0 47L0 0L0 0Z" fill="#8b8f96"></path><path d="M1027 0L540 0L540 47L900 47L900 94L806 94L806 141L667 141L667 188L468 188L468 235L466 235L466 282L954 282L954 329L1032 329L1032 376L689 376L689 423L696 423L696 470L764 470L764 517L435 517L435 563L512 563L512 610L994 610L994 657L610 657L610 704L436 704L436 751L553 751L553 798L552 798L552 845L876 845L876 892L452 892L452 939L916 939L916 986L755 986L755 1033L821 1033L821 1080L0 1080L0 1033L0 1033L0 986L0 986L0 939L0 939L0 892L0 892L0 845L0 845L0 798L0 798L0 751L0 751L0 704L0 704L0 657L0 657L0 610L0 610L0 563L0 563L0 517L0 517L0 470L0 470L0 423L0 423L0 376L0 376L0 329L0 329L0 282L0 282L0 235L0 235L0 188L0 188L0 141L0 141L0 94L0 94L0 47L0 47L0 0L0 0Z" fill="#82868d"></path><path d="M708 0L436 0L436 47L659 47L659 94L542 94L542 141L657 141L657 188L658 188L658 235L814 235L814 282L583 282L583 329L829 329L829 376L850 376L850 423L500 423L500 470L610 470L610 517L433 517L433 563L414 563L414 610L889 610L889 657L712 657L712 704L354 704L354 751L647 751L647 798L688 798L688 845L835 845L835 892L864 892L864 939L664 939L664 986L704 986L704 1033L852 1033L852 1080L0 1080L0 1033L0 1033L0 986L0 986L0 939L0 939L0 892L0 892L0 845L0 845L0 798L0 798L0 751L0 751L0 704L0 704L0 657L0 657L0 610L0 610L0 563L0 563L0 517L0 517L0 470L0 470L0 423L0 423L0 376L0 376L0 329L0 329L0 282L0 282L0 235L0 235L0 188L0 188L0 141L0 141L0 94L0 94L0 47L0 47L0 0L0 0Z" fill="#787c84"></path><path d="M641 0L632 0L632 47L617 47L617 94L400 94L400 141L412 141L412 188L320 188L320 235L565 235L565 282L505 282L505 329L512 329L512 376L680 376L680 423L449 423L449 470L540 470L540 517L506 517L506 563L320 563L320 610L453 610L453 657L781 657L781 704L745 704L745 751L433 751L433 798L782 798L782 845L805 845L805 892L455 892L455 939L767 939L767 986L801 986L801 1033L616 1033L616 1080L0 1080L0 1033L0 1033L0 986L0 986L0 939L0 939L0 892L0 892L0 845L0 845L0 798L0 798L0 751L0 751L0 704L0 704L0 657L0 657L0 610L0 610L0 563L0 563L0 517L0 517L0 470L0 470L0 423L0 423L0 376L0 376L0 329L0 329L0 282L0 282L0 235L0 235L0 188L0 188L0 141L0 141L0 94L0 94L0 47L0 47L0 0L0 0Z" fill="#6f737c"></path><path d="M599 0L514 0L514 47L383 47L383 94L507 94L507 141L656 141L656 188L428 188L428 235L343 235L343 282L546 282L546 329L303 329L303 376L345 376L345 423L637 423L637 470L564 470L564 517L309 517L309 563L251 563L251 610L295 610L295 657L537 657L537 704L524 704L524 751L504 751L504 798L574 798L574 845L250 845L250 892L372 892L372 939L277 939L277 986L485 986L485 1033L685 1033L685 1080L0 1080L0 1033L0 1033L0 986L0 986L0 939L0 939L0 892L0 892L0 845L0 845L0 798L0 798L0 751L0 751L0 704L0 704L0 657L0 657L0 610L0 610L0 563L0 563L0 517L0 517L0 470L0 470L0 423L0 423L0 376L0 376L0 329L0 329L0 282L0 282L0 235L0 235L0 188L0 188L0 141L0 141L0 94L0 94L0 47L0 47L0 0L0 0Z" fill="#666a73"></path><path d="M185 0L224 0L224 47L211 47L211 94L484 94L484 141L368 141L368 188L361 188L361 235L517 235L517 282L574 282L574 329L382 329L382 376L277 376L277 423L566 423L566 470L410 470L410 517L194 517L194 563L462 563L462 610L229 610L229 657L496 657L496 704L187 704L187 751L461 751L461 798L465 798L465 845L256 845L256 892L361 892L361 939L355 939L355 986L207 986L207 1033L296 1033L296 1080L0 1080L0 1033L0 1033L0 986L0 986L0 939L0 939L0 892L0 892L0 845L0 845L0 798L0 798L0 751L0 751L0 704L0 704L0 657L0 657L0 610L0 610L0 563L0 563L0 517L0 517L0 470L0 470L0 423L0 423L0 376L0 376L0 329L0 329L0 282L0 282L0 235L0 235L0 188L0 188L0 141L0 141L0 94L0 94L0 47L0 47L0 0L0 0Z" fill="#5f636b"></path><path d="M288 0L169 0L169 47L191 47L191 94L240 94L240 141L422 141L422 188L168 188L168 235L181 235L181 282L372 282L372 329L432 329L432 376L195 376L195 423L312 423L312 470L220 470L220 517L434 517L434 563L124 563L124 610L274 610L274 657L178 657L178 704L449 704L449 751L382 751L382 798L376 798L376 845L269 845L269 892L311 892L311 939L395 939L395 986L415 986L415 1033L164 1033L164 1080L0 1080L0 1033L0 1033L0 986L0 986L0 939L0 939L0 892L0 892L0 845L0 845L0 798L0 798L0 751L0 751L0 704L0 704L0 657L0 657L0 610L0 610L0 563L0 563L0 517L0 517L0 470L0 470L0 423L0 423L0 376L0 376L0 329L0 329L0 282L0 282L0 235L0 235L0 188L0 188L0 141L0 141L0 94L0 94L0 47L0 47L0 0L0 0Z" fill="#585c63"></path><path d="M336 0L159 0L159 47L154 47L154 94L252 94L252 141L140 141L140 188L230 188L230 235L208 235L208 282L184 282L184 329L138 329L138 376L227 376L227 423L329 423L329 470L62 470L62 517L113 517L113 563L316 563L316 610L192 610L192 657L324 657L324 704L202 704L202 751L194 751L194 798L326 798L326 845L248 845L248 892L285 892L285 939L169 939L169 986L66 986L66 1033L244 1033L244 1080L0 1080L0 1033L0 1033L0 986L0 986L0 939L0 939L0 892L0 892L0 845L0 845L0 798L0 798L0 751L0 751L0 704L0 704L0 657L0 657L0 610L0 610L0 563L0 563L0 517L0 517L0 470L0 470L0 423L0 423L0 376L0 376L0 329L0 329L0 282L0 282L0 235L0 235L0 188L0 188L0 141L0 141L0 94L0 94L0 47L0 47L0 0L0 0Z" fill="#52555c"></path><path d="M29 0L151 0L151 47L143 47L143 94L111 94L111 141L209 141L209 188L71 188L71 235L215 235L215 282L125 282L125 329L149 329L149 376L107 376L107 423L74 423L74 470L24 470L24 517L44 517L44 563L20 563L20 610L74 610L74 657L77 657L77 704L131 704L131 751L9 751L9 798L153 798L153 845L20 845L20 892L84 892L84 939L12 939L12 986L119 986L119 1033L18 1033L18 1080L0 1080L0 1033L0 1033L0 986L0 986L0 939L0 939L0 892L0 892L0 845L0 845L0 798L0 798L0 751L0 751L0 704L0 704L0 657L0 657L0 610L0 610L0 563L0 563L0 517L0 517L0 470L0 470L0 423L0 423L0 376L0 376L0 329L0 329L0 282L0 282L0 235L0 235L0 188L0 188L0 141L0 141L0 94L0 94L0 47L0 47L0 0L0 0Z" fill="#4b4e54"></path></svg>