<svg id="visual" viewBox="0 0 900 900" width="900" height="900" xmlns="http://www.w3.org/2000/svg" xmlns:xlink="http://www.w3.org/1999/xlink" version="1.1"><g stroke-width="2" stroke-linejoin="bevel"><path d="M446.1 452.1L398.9 431.9L344.5 479.1Z" fill="#4dbb87" stroke="#ffffff"></path><path d="M378.3 239.3L367.1 415.3L398.9 431.9Z" fill="#7adaac" stroke="#ffffff"></path><path d="M398.9 431.9L367.1 415.3L344.5 479.1Z" fill="#52c690" stroke="#ffffff"></path><path d="M286.3 572.9L318.1 550.9L234.6 494.9Z" fill="#7adaac" stroke="#ffffff"></path><path d="M344.5 479.1L477.1 565.5L446.1 452.1Z" fill="#57d198" stroke="#ffffff"></path><path d="M367.1 415.3L325.5 418.9L344.5 479.1Z" fill="#85ddb3" stroke="#ffffff"></path><path d="M318.1 550.9L477.1 565.5L344.5 479.1Z" fill="#85ddb3" stroke="#ffffff"></path><path d="M563.7 497.1L495.9 419.1L446.1 452.1Z" fill="#6fd7a5" stroke="#ffffff"></path><path d="M446.1 452.1L495.9 419.1L398.9 431.9Z" fill="#7adaac" stroke="#ffffff"></path><path d="M318.1 550.9L331.5 600.5L477.1 565.5Z" fill="#8fe0b9" stroke="#ffffff"></path><path d="M234.6 494.9L318.1 550.9L344.5 479.1Z" fill="#3e9b6f" stroke="#ffffff"></path><path d="M318.1 550.9L286.3 572.9L331.5 600.5Z" fill="#3e9b6f" stroke="#ffffff"></path><path d="M411.1 666.7L490.7 607.5L477.1 565.5Z" fill="#4dbb87" stroke="#ffffff"></path><path d="M477.1 565.5L563.7 497.1L446.1 452.1Z" fill="#4dbb87" stroke="#ffffff"></path><path d="M286.3 572.9L326.3 630.7L331.5 600.5Z" fill="#57d198" stroke="#ffffff"></path><path d="M331.5 600.5L411.1 666.7L477.1 565.5Z" fill="#48b07f" stroke="#ffffff"></path><path d="M568.7 587.7L563.7 497.1L477.1 565.5Z" fill="#57d198" stroke="#ffffff"></path><path d="M325.5 418.9L234.6 494.9L344.5 479.1Z" fill="#48b07f" stroke="#ffffff"></path><path d="M326.3 630.7L411.1 666.7L331.5 600.5Z" fill="#57d198" stroke="#ffffff"></path><path d="M563.7 497.1L581.5 469.9L495.9 419.1Z" fill="#52c690" stroke="#ffffff"></path><path d="M367.1 415.3L274.3 362.1L325.5 418.9Z" fill="#52c690" stroke="#ffffff"></path><path d="M325.5 418.9L274.3 362.1L234.6 494.9Z" fill="#7adaac" stroke="#ffffff"></path><path d="M378.3 239.3L274.3 362.1L367.1 415.3Z" fill="#85ddb3" stroke="#ffffff"></path><path d="M564.9 641.7L568.7 587.7L490.7 607.5Z" fill="#63d49f" stroke="#ffffff"></path><path d="M490.7 607.5L568.7 587.7L477.1 565.5Z" fill="#8fe0b9" stroke="#ffffff"></path><path d="M563.7 497.1L607.7 534.9L581.5 469.9Z" fill="#85ddb3" stroke="#ffffff"></path><path d="M175.8 451.1L210.5 521.7L234.6 494.9Z" fill="#63d49f" stroke="#ffffff"></path><path d="M234.6 494.9L210.5 521.7L286.3 572.9Z" fill="#7adaac" stroke="#ffffff"></path><path d="M301.5 745.2L337.5 699.4L188.6 675.4Z" fill="#4dbb87" stroke="#ffffff"></path><path d="M411.1 666.7L498.1 670.4L490.7 607.5Z" fill="#7adaac" stroke="#ffffff"></path><path d="M280.3 261.5L251.6 344.3L274.3 362.1Z" fill="#57d198" stroke="#ffffff"></path><path d="M274.3 362.1L175.8 451.1L234.6 494.9Z" fill="#85ddb3" stroke="#ffffff"></path><path d="M568.7 587.7L607.7 534.9L563.7 497.1Z" fill="#4dbb87" stroke="#ffffff"></path><path d="M188.6 675.4L326.3 630.7L286.3 572.9Z" fill="#52c690" stroke="#ffffff"></path><path d="M326.3 630.7L337.5 699.4L411.1 666.7Z" fill="#63d49f" stroke="#ffffff"></path><path d="M488.7 713.4L518.9 695.5L498.1 670.4Z" fill="#8fe0b9" stroke="#ffffff"></path><path d="M91.8 485.9L191.6 557.5L210.5 521.7Z" fill="#57d198" stroke="#ffffff"></path><path d="M210.5 521.7L191.6 557.5L286.3 572.9Z" fill="#63d49f" stroke="#ffffff"></path><path d="M498.1 670.4L564.9 641.7L490.7 607.5Z" fill="#52c690" stroke="#ffffff"></path><path d="M568.7 587.7L669.4 581.7L607.7 534.9Z" fill="#63d49f" stroke="#ffffff"></path><path d="M209.5 340.3L175.8 451.1L274.3 362.1Z" fill="#43a677" stroke="#ffffff"></path><path d="M488.7 713.4L498.1 670.4L411.1 666.7Z" fill="#4dbb87" stroke="#ffffff"></path><path d="M498.1 670.4L518.9 695.5L564.9 641.7Z" fill="#4dbb87" stroke="#ffffff"></path><path d="M403.1 758.2L488.7 713.4L411.1 666.7Z" fill="#4dbb87" stroke="#ffffff"></path><path d="M251.6 344.3L209.5 340.3L274.3 362.1Z" fill="#48b07f" stroke="#ffffff"></path><path d="M566.9 296.3L561.7 296.3L596.5 304.3Z" fill="#57d198" stroke="#ffffff"></path><path d="M495.9 419.1L378.3 239.3L398.9 431.9Z" fill="#48b07f" stroke="#ffffff"></path><path d="M251.6 344.3L280.3 261.5L209.5 340.3Z" fill="#43a677" stroke="#ffffff"></path><path d="M561.7 296.3L495.9 419.1L596.5 304.3Z" fill="#85ddb3" stroke="#ffffff"></path><path d="M561.7 296.3L378.3 239.3L495.9 419.1Z" fill="#6fd7a5" stroke="#ffffff"></path><path d="M596.5 304.3L495.9 419.1L581.5 469.9Z" fill="#43a677" stroke="#ffffff"></path><path d="M561.7 296.3L502.1 206.5L378.3 239.3Z" fill="#85ddb3" stroke="#ffffff"></path><path d="M337.5 699.4L387.3 747.5L411.1 666.7Z" fill="#43a677" stroke="#ffffff"></path><path d="M343.5 234.5L280.3 261.5L274.3 362.1Z" fill="#8fe0b9" stroke="#ffffff"></path><path d="M378.3 239.3L343.5 234.5L274.3 362.1Z" fill="#4dbb87" stroke="#ffffff"></path><path d="M387.3 747.5L403.1 758.2L411.1 666.7Z" fill="#4dbb87" stroke="#ffffff"></path><path d="M663.4 391.9L596.5 304.3L581.5 469.9Z" fill="#57d198" stroke="#ffffff"></path><path d="M566.9 296.3L579.9 264.5L561.7 296.3Z" fill="#8fe0b9" stroke="#ffffff"></path><path d="M596.5 304.3L590.5 297.5L566.9 296.3Z" fill="#8fe0b9" stroke="#ffffff"></path><path d="M337.5 699.4L301.5 745.2L387.3 747.5Z" fill="#8fe0b9" stroke="#ffffff"></path><path d="M371.3 848.2L407.9 830.2L403.1 758.2Z" fill="#63d49f" stroke="#ffffff"></path><path d="M188.6 675.4L337.5 699.4L326.3 630.7Z" fill="#6fd7a5" stroke="#ffffff"></path><path d="M403.1 758.2L488.9 755.4L488.7 713.4Z" fill="#3e9b6f" stroke="#ffffff"></path><path d="M488.7 713.4L488.9 755.4L518.9 695.5Z" fill="#52c690" stroke="#ffffff"></path><path d="M601.5 712.5L641.4 646.5L564.9 641.7Z" fill="#57d198" stroke="#ffffff"></path><path d="M717.5 506.7L663.4 391.9L581.5 469.9Z" fill="#3e9b6f" stroke="#ffffff"></path><path d="M403.1 758.2L489.7 757.2L488.9 755.4Z" fill="#6fd7a5" stroke="#ffffff"></path><path d="M488.9 755.4L489.7 757.2L518.9 695.5Z" fill="#3e9b6f" stroke="#ffffff"></path><path d="M162.8 666.7L188.6 675.4L191.6 557.5Z" fill="#7adaac" stroke="#ffffff"></path><path d="M191.6 557.5L188.6 675.4L286.3 572.9Z" fill="#3e9b6f" stroke="#ffffff"></path><path d="M641.4 646.5L669.4 581.7L568.7 587.7Z" fill="#3e9b6f" stroke="#ffffff"></path><path d="M607.7 534.9L717.5 506.7L581.5 469.9Z" fill="#85ddb3" stroke="#ffffff"></path><path d="M641.4 646.5L568.7 587.7L564.9 641.7Z" fill="#63d49f" stroke="#ffffff"></path><path d="M601.5 712.5L564.9 641.7L518.9 695.5Z" fill="#8fe0b9" stroke="#ffffff"></path><path d="M606.7 215.5L579.9 264.5L596.5 304.3Z" fill="#85ddb3" stroke="#ffffff"></path><path d="M596.5 304.3L579.9 264.5L590.5 297.5Z" fill="#6fd7a5" stroke="#ffffff"></path><path d="M590.5 297.5L579.9 264.5L566.9 296.3Z" fill="#7adaac" stroke="#ffffff"></path><path d="M378.3 239.3L316.1 193.6L343.5 234.5Z" fill="#85ddb3" stroke="#ffffff"></path><path d="M112.8 605.5L162.8 666.7L191.6 557.5Z" fill="#48b07f" stroke="#ffffff"></path><path d="M188.6 675.4L230.3 769.4L301.5 745.2Z" fill="#43a677" stroke="#ffffff"></path><path d="M489.7 757.2L601.5 712.5L518.9 695.5Z" fill="#57d198" stroke="#ffffff"></path><path d="M579.9 264.5L502.1 206.5L561.7 296.3Z" fill="#3e9b6f" stroke="#ffffff"></path><path d="M310.5 138.8L316.1 193.6L378.3 239.3Z" fill="#52c690" stroke="#ffffff"></path><path d="M343.5 234.5L316.1 193.6L280.3 261.5Z" fill="#6fd7a5" stroke="#ffffff"></path><path d="M177.5 228.6L127.6 339.1L209.5 340.3Z" fill="#63d49f" stroke="#ffffff"></path><path d="M127.6 339.1L91.8 485.9L175.8 451.1Z" fill="#6fd7a5" stroke="#ffffff"></path><path d="M175.8 451.1L91.8 485.9L210.5 521.7Z" fill="#43a677" stroke="#ffffff"></path><path d="M127.6 339.1L175.8 451.1L209.5 340.3Z" fill="#52c690" stroke="#ffffff"></path><path d="M91.8 485.9L98.6 557.7L191.6 557.5Z" fill="#7adaac" stroke="#ffffff"></path><path d="M98.6 557.7L112.8 605.5L191.6 557.5Z" fill="#63d49f" stroke="#ffffff"></path><path d="M210.6 235.6L209.5 340.3L280.3 261.5Z" fill="#7adaac" stroke="#ffffff"></path><path d="M724.2 374.1L692.4 370.1L733.4 389.3Z" fill="#52c690" stroke="#ffffff"></path><path d="M663.4 391.9L692.4 370.1L596.5 304.3Z" fill="#43a677" stroke="#ffffff"></path><path d="M739.5 490.1L717.5 506.7L873.2 531.7Z" fill="#48b07f" stroke="#ffffff"></path><path d="M669.4 581.7L717.5 506.7L607.7 534.9Z" fill="#43a677" stroke="#ffffff"></path><path d="M227.3 199.6L210.6 235.6L280.3 261.5Z" fill="#7adaac" stroke="#ffffff"></path><path d="M538.7 177.8L491.7 179.6L502.1 206.5Z" fill="#43a677" stroke="#ffffff"></path><path d="M502.1 206.5L491.7 179.6L378.3 239.3Z" fill="#3e9b6f" stroke="#ffffff"></path><path d="M538.7 177.8L502.1 206.5L579.9 264.5Z" fill="#6fd7a5" stroke="#ffffff"></path><path d="M208.6 795.2L188.6 675.4L163.8 810.2Z" fill="#57d198" stroke="#ffffff"></path><path d="M208.6 795.2L230.3 769.4L188.6 675.4Z" fill="#85ddb3" stroke="#ffffff"></path><path d="M371.3 848.2L403.1 758.2L387.3 747.5Z" fill="#57d198" stroke="#ffffff"></path><path d="M403.1 758.2L407.9 830.2L489.7 757.2Z" fill="#52c690" stroke="#ffffff"></path><path d="M717.5 506.7L739.5 490.1L663.4 391.9Z" fill="#85ddb3" stroke="#ffffff"></path><path d="M761.2 668.5L717.5 506.7L669.4 581.7Z" fill="#43a677" stroke="#ffffff"></path><path d="M761.2 668.5L669.4 581.7L641.4 646.5Z" fill="#57d198" stroke="#ffffff"></path><path d="M316.1 193.6L227.3 199.6L280.3 261.5Z" fill="#48b07f" stroke="#ffffff"></path><path d="M210.6 235.6L177.5 228.6L209.5 340.3Z" fill="#48b07f" stroke="#ffffff"></path><path d="M218.6 182.5L227.3 199.6L310.5 138.8Z" fill="#3e9b6f" stroke="#ffffff"></path><path d="M371.3 848.2L387.3 747.5L301.5 745.2Z" fill="#43a677" stroke="#ffffff"></path><path d="M743.5 760.4L670.4 711.4L670.5 874.2Z" fill="#57d198" stroke="#ffffff"></path><path d="M606.7 215.5L538.7 177.8L579.9 264.5Z" fill="#52c690" stroke="#ffffff"></path><path d="M733.4 389.3L692.4 370.1L663.4 391.9Z" fill="#85ddb3" stroke="#ffffff"></path><path d="M709.4 232.5L606.7 215.5L596.5 304.3Z" fill="#48b07f" stroke="#ffffff"></path><path d="M709.4 232.5L596.5 304.3L692.4 370.1Z" fill="#63d49f" stroke="#ffffff"></path><path d="M227.3 199.6L177.5 228.6L210.6 235.6Z" fill="#8fe0b9" stroke="#ffffff"></path><path d="M739.5 490.1L733.4 389.3L663.4 391.9Z" fill="#57d198" stroke="#ffffff"></path><path d="M568.9 900L601.5 712.5L489.7 757.2Z" fill="#52c690" stroke="#ffffff"></path><path d="M601.5 712.5L670.4 711.4L641.4 646.5Z" fill="#57d198" stroke="#ffffff"></path><path d="M527.7 0L481.1 143.8L538.7 177.8Z" fill="#7adaac" stroke="#ffffff"></path><path d="M538.7 177.8L481.1 143.8L491.7 179.6Z" fill="#4dbb87" stroke="#ffffff"></path><path d="M491.7 179.6L481.1 143.8L378.3 239.3Z" fill="#48b07f" stroke="#ffffff"></path><path d="M310.5 138.8L227.3 199.6L316.1 193.6Z" fill="#85ddb3" stroke="#ffffff"></path><path d="M227.3 199.6L218.6 182.5L177.5 228.6Z" fill="#52c690" stroke="#ffffff"></path><path d="M323.5 900L371.3 848.2L301.5 745.2Z" fill="#48b07f" stroke="#ffffff"></path><path d="M407.9 830.2L472.1 900L489.7 757.2Z" fill="#4dbb87" stroke="#ffffff"></path><path d="M163.8 810.2L188.6 675.4L162.8 666.7Z" fill="#43a677" stroke="#ffffff"></path><path d="M230.3 769.4L323.5 900L301.5 745.2Z" fill="#6fd7a5" stroke="#ffffff"></path><path d="M481.1 143.8L310.5 138.8L378.3 239.3Z" fill="#57d198" stroke="#ffffff"></path><path d="M709.4 232.5L609.5 174.6L606.7 215.5Z" fill="#57d198" stroke="#ffffff"></path><path d="M606.7 215.5L609.5 174.6L538.7 177.8Z" fill="#48b07f" stroke="#ffffff"></path><path d="M709.4 232.5L692.4 370.1L724.2 374.1Z" fill="#6fd7a5" stroke="#ffffff"></path><path d="M0 749.4L163.8 810.2L162.8 666.7Z" fill="#48b07f" stroke="#ffffff"></path><path d="M323.5 900L348.3 900L371.3 848.2Z" fill="#3e9b6f" stroke="#ffffff"></path><path d="M0 669.5L162.8 666.7L112.8 605.5Z" fill="#43a677" stroke="#ffffff"></path><path d="M670.4 711.4L761.2 668.5L641.4 646.5Z" fill="#48b07f" stroke="#ffffff"></path><path d="M739.5 490.1L813.2 435.9L733.4 389.3Z" fill="#85ddb3" stroke="#ffffff"></path><path d="M809.2 274.5L709.4 232.5L724.2 374.1Z" fill="#63d49f" stroke="#ffffff"></path><path d="M91.8 485.9L0 516.9L98.6 557.7Z" fill="#43a677" stroke="#ffffff"></path><path d="M98.6 557.7L0 669.5L112.8 605.5Z" fill="#43a677" stroke="#ffffff"></path><path d="M0 393.3L0 504.7L91.8 485.9Z" fill="#6fd7a5" stroke="#ffffff"></path><path d="M0 393.3L91.8 485.9L127.6 339.1Z" fill="#4dbb87" stroke="#ffffff"></path><path d="M0 504.7L0 516.9L91.8 485.9Z" fill="#8fe0b9" stroke="#ffffff"></path><path d="M92.8 180.6L57.8 267.5L177.5 228.6Z" fill="#52c690" stroke="#ffffff"></path><path d="M177.5 228.6L57.8 267.5L127.6 339.1Z" fill="#3e9b6f" stroke="#ffffff"></path><path d="M323.5 900L230.3 769.4L208.6 795.2Z" fill="#85ddb3" stroke="#ffffff"></path><path d="M371.3 848.2L472.1 900L407.9 830.2Z" fill="#48b07f" stroke="#ffffff"></path><path d="M670.4 711.4L743.5 760.4L761.2 668.5Z" fill="#52c690" stroke="#ffffff"></path><path d="M0 356.1L0 393.3L127.6 339.1Z" fill="#48b07f" stroke="#ffffff"></path><path d="M873.2 531.7L813.2 435.9L739.5 490.1Z" fill="#6fd7a5" stroke="#ffffff"></path><path d="M733.4 389.3L809.2 274.5L724.2 374.1Z" fill="#4dbb87" stroke="#ffffff"></path><path d="M348.3 900L472.1 900L371.3 848.2Z" fill="#52c690" stroke="#ffffff"></path><path d="M527.7 0L434.9 74.6L481.1 143.8Z" fill="#3e9b6f" stroke="#ffffff"></path><path d="M481.1 143.8L434.9 74.6L310.5 138.8Z" fill="#7adaac" stroke="#ffffff"></path><path d="M227.6 31.8L92.8 180.6L218.6 182.5Z" fill="#57d198" stroke="#ffffff"></path><path d="M187.6 900L323.5 900L208.6 795.2Z" fill="#3e9b6f" stroke="#ffffff"></path><path d="M472.1 900L492.7 900L489.7 757.2Z" fill="#48b07f" stroke="#ffffff"></path><path d="M57.8 267.5L0 356.1L127.6 339.1Z" fill="#6fd7a5" stroke="#ffffff"></path><path d="M658.4 875.2L670.4 711.4L601.5 712.5Z" fill="#57d198" stroke="#ffffff"></path><path d="M761.2 668.5L873.2 531.7L717.5 506.7Z" fill="#85ddb3" stroke="#ffffff"></path><path d="M218.6 182.5L92.8 180.6L177.5 228.6Z" fill="#85ddb3" stroke="#ffffff"></path><path d="M57.8 267.5L0 230.6L0 356.1Z" fill="#85ddb3" stroke="#ffffff"></path><path d="M227.6 31.8L218.6 182.5L310.5 138.8Z" fill="#57d198" stroke="#ffffff"></path><path d="M0 516.9L0 669.5L98.6 557.7Z" fill="#7adaac" stroke="#ffffff"></path><path d="M492.7 900L568.9 900L489.7 757.2Z" fill="#48b07f" stroke="#ffffff"></path><path d="M662.5 24.8L527.7 0L609.5 174.6Z" fill="#85ddb3" stroke="#ffffff"></path><path d="M407.9 -7.2L404.9 0L434.9 74.6Z" fill="#85ddb3" stroke="#ffffff"></path><path d="M813.2 435.9L809.2 274.5L733.4 389.3Z" fill="#63d49f" stroke="#ffffff"></path><path d="M134.8 900L187.6 900L163.8 810.2Z" fill="#4dbb87" stroke="#ffffff"></path><path d="M163.8 810.2L187.6 900L208.6 795.2Z" fill="#7adaac" stroke="#ffffff"></path><path d="M568.9 900L658.4 875.2L601.5 712.5Z" fill="#52c690" stroke="#ffffff"></path><path d="M727.5 900L670.5 874.2L658.4 875.2Z" fill="#8fe0b9" stroke="#ffffff"></path><path d="M658.4 875.2L670.5 874.2L670.4 711.4Z" fill="#3e9b6f" stroke="#ffffff"></path><path d="M900 644.5L873.2 531.7L761.2 668.5Z" fill="#52c690" stroke="#ffffff"></path><path d="M813.2 435.9L900 351.1L809.2 274.5Z" fill="#6fd7a5" stroke="#ffffff"></path><path d="M0 669.5L0 749.4L162.8 666.7Z" fill="#43a677" stroke="#ffffff"></path><path d="M0 223.5L0 230.6L57.8 267.5Z" fill="#52c690" stroke="#ffffff"></path><path d="M92.8 180.6L0 223.5L57.8 267.5Z" fill="#43a677" stroke="#ffffff"></path><path d="M0 223.5L-6.2 228.3L0 230.6Z" fill="#7adaac" stroke="#ffffff"></path><path d="M0 230.6L-6.2 228.3L0 356.1Z" fill="#57d198" stroke="#ffffff"></path><path d="M0 356.1L-6.2 228.3L0 393.3Z" fill="#52c690" stroke="#ffffff"></path><path d="M0 393.3L-6.2 228.3L0 504.7Z" fill="#8fe0b9" stroke="#ffffff"></path><path d="M0 504.7L-6.2 228.3L0 516.9Z" fill="#85ddb3" stroke="#ffffff"></path><path d="M0 516.9L-5.2 796.4L0 669.5Z" fill="#3e9b6f" stroke="#ffffff"></path><path d="M0 669.5L-5.2 796.4L0 749.4Z" fill="#3e9b6f" stroke="#ffffff"></path><path d="M0 850.2L134.8 900L163.8 810.2Z" fill="#85ddb3" stroke="#ffffff"></path><path d="M407.9 -7.2L434.9 74.6L527.7 0Z" fill="#57d198" stroke="#ffffff"></path><path d="M434.9 74.6L347.1 0L310.5 138.8Z" fill="#52c690" stroke="#ffffff"></path><path d="M92.8 180.6L0 138.8L0 223.5Z" fill="#6fd7a5" stroke="#ffffff"></path><path d="M347.1 0L227.6 31.8L310.5 138.8Z" fill="#8fe0b9" stroke="#ffffff"></path><path d="M0 223.5L0 138.8L-6.2 228.3Z" fill="#63d49f" stroke="#ffffff"></path><path d="M404.9 0L347.1 0L434.9 74.6Z" fill="#57d198" stroke="#ffffff"></path><path d="M527.7 0L538.7 177.8L609.5 174.6Z" fill="#52c690" stroke="#ffffff"></path><path d="M404.9 0L346.3 -15.2L347.1 0Z" fill="#3e9b6f" stroke="#ffffff"></path><path d="M900 644.5L900 485.9L873.2 531.7Z" fill="#57d198" stroke="#ffffff"></path><path d="M873.2 531.7L900 485.9L813.2 435.9Z" fill="#8fe0b9" stroke="#ffffff"></path><path d="M784.4 133.6L609.5 174.6L709.4 232.5Z" fill="#63d49f" stroke="#ffffff"></path><path d="M407.9 -7.2L346.3 -15.2L404.9 0Z" fill="#4dbb87" stroke="#ffffff"></path><path d="M347.1 0L249.5 0L227.6 31.8Z" fill="#57d198" stroke="#ffffff"></path><path d="M527.7 0L346.3 -15.2L407.9 -7.2Z" fill="#6fd7a5" stroke="#ffffff"></path><path d="M-6.2 228.3L-5.2 796.4L0 516.9Z" fill="#85ddb3" stroke="#ffffff"></path><path d="M0 749.4L-5.2 796.4L163.8 810.2Z" fill="#7adaac" stroke="#ffffff"></path><path d="M346.3 -15.2L249.5 0L347.1 0Z" fill="#7adaac" stroke="#ffffff"></path><path d="M32.8 99.8L0 138.8L92.8 180.6Z" fill="#8fe0b9" stroke="#ffffff"></path><path d="M346.3 -15.2L240.3 0L249.5 0Z" fill="#57d198" stroke="#ffffff"></path><path d="M249.5 0L240.3 0L227.6 31.8Z" fill="#4dbb87" stroke="#ffffff"></path><path d="M900 485.9L900 351.1L813.2 435.9Z" fill="#52c690" stroke="#ffffff"></path><path d="M809.2 274.5L784.4 133.6L709.4 232.5Z" fill="#85ddb3" stroke="#ffffff"></path><path d="M900 719.2L876.2 704.4L900 740.4Z" fill="#85ddb3" stroke="#ffffff"></path><path d="M743.5 760.4L876.2 704.4L761.2 668.5Z" fill="#8fe0b9" stroke="#ffffff"></path><path d="M876.2 704.4L900 644.5L761.2 668.5Z" fill="#85ddb3" stroke="#ffffff"></path><path d="M900 274.3L853.2 228.3L809.2 274.5Z" fill="#85ddb3" stroke="#ffffff"></path><path d="M853.2 228.3L784.4 133.6L809.2 274.5Z" fill="#3e9b6f" stroke="#ffffff"></path><path d="M568.9 900L727.5 900L658.4 875.2Z" fill="#4dbb87" stroke="#ffffff"></path><path d="M670.5 874.2L727.5 900L743.5 760.4Z" fill="#43a677" stroke="#ffffff"></path><path d="M876.2 704.4L900 668.7L900 644.5Z" fill="#57d198" stroke="#ffffff"></path><path d="M755.4 56.8L662.5 24.8L609.5 174.6Z" fill="#63d49f" stroke="#ffffff"></path><path d="M32.8 99.8L92.8 180.6L170.6 0Z" fill="#43a677" stroke="#ffffff"></path><path d="M170.6 0L92.8 180.6L227.6 31.8Z" fill="#8fe0b9" stroke="#ffffff"></path><path d="M-5.2 796.4L0 850.2L163.8 810.2Z" fill="#57d198" stroke="#ffffff"></path><path d="M900 351.1L900 279.5L809.2 274.5Z" fill="#3e9b6f" stroke="#ffffff"></path><path d="M870.2 97.8L755.4 56.8L784.4 133.6Z" fill="#52c690" stroke="#ffffff"></path><path d="M346.3 -15.2L170.6 0L240.3 0Z" fill="#6fd7a5" stroke="#ffffff"></path><path d="M240.3 0L170.6 0L227.6 31.8Z" fill="#7adaac" stroke="#ffffff"></path><path d="M900 279.5L900 274.3L809.2 274.5Z" fill="#57d198" stroke="#ffffff"></path><path d="M900 740.4L876.2 704.4L743.5 760.4Z" fill="#85ddb3" stroke="#ffffff"></path><path d="M876.2 704.4L900 719.2L900 668.7Z" fill="#7adaac" stroke="#ffffff"></path><path d="M819.2 900L900 740.4L743.5 760.4Z" fill="#7adaac" stroke="#ffffff"></path><path d="M727.5 900L781.4 900L743.5 760.4Z" fill="#63d49f" stroke="#ffffff"></path><path d="M880.2 130.6L784.4 133.6L853.2 228.3Z" fill="#85ddb3" stroke="#ffffff"></path><path d="M784.4 133.6L755.4 56.8L609.5 174.6Z" fill="#7adaac" stroke="#ffffff"></path><path d="M712.5 0L680.4 0L662.5 24.8Z" fill="#63d49f" stroke="#ffffff"></path><path d="M662.5 24.8L680.4 0L527.7 0Z" fill="#8fe0b9" stroke="#ffffff"></path><path d="M527.7 0L680.4 0L346.3 -15.2Z" fill="#6fd7a5" stroke="#ffffff"></path><path d="M-5.2 796.4L0 900L0 850.2Z" fill="#8fe0b9" stroke="#ffffff"></path><path d="M0 850.2L0 900L134.8 900Z" fill="#4dbb87" stroke="#ffffff"></path><path d="M755.4 56.8L712.5 0L662.5 24.8Z" fill="#8fe0b9" stroke="#ffffff"></path><path d="M680.4 0L712.5 0L346.3 -15.2Z" fill="#85ddb3" stroke="#ffffff"></path><path d="M781.4 900L819.2 900L743.5 760.4Z" fill="#4dbb87" stroke="#ffffff"></path><path d="M900 274.3L880.2 130.6L853.2 228.3Z" fill="#6fd7a5" stroke="#ffffff"></path><path d="M755.4 56.8L875.2 0L712.5 0Z" fill="#52c690" stroke="#ffffff"></path><path d="M880.2 130.6L870.2 97.8L784.4 133.6Z" fill="#85ddb3" stroke="#ffffff"></path><path d="M170.6 0L21.8 0L32.8 99.8Z" fill="#4dbb87" stroke="#ffffff"></path><path d="M32.8 99.8L0 0L0 138.8Z" fill="#43a677" stroke="#ffffff"></path><path d="M346.3 -15.2L21.8 0L170.6 0Z" fill="#85ddb3" stroke="#ffffff"></path><path d="M900 274.3L900 107.6L880.2 130.6Z" fill="#85ddb3" stroke="#ffffff"></path><path d="M880.2 130.6L900 107.6L870.2 97.8Z" fill="#85ddb3" stroke="#ffffff"></path><path d="M870.2 97.8L875.2 0L755.4 56.8Z" fill="#52c690" stroke="#ffffff"></path><path d="M346.3 -15.2L0 0L21.8 0Z" fill="#43a677" stroke="#ffffff"></path><path d="M21.8 0L0 0L32.8 99.8Z" fill="#8fe0b9" stroke="#ffffff"></path><path d="M0 138.8L0 0L-6.2 228.3Z" fill="#63d49f" stroke="#ffffff"></path><path d="M819.2 900L900 900L900 740.4Z" fill="#85ddb3" stroke="#ffffff"></path><path d="M781.4 900L907.2 910.2L819.2 900Z" fill="#6fd7a5" stroke="#ffffff"></path><path d="M819.2 900L907.2 910.2L900 900Z" fill="#52c690" stroke="#ffffff"></path><path d="M900 900L907.2 910.2L900 740.4Z" fill="#43a677" stroke="#ffffff"></path><path d="M900 740.4L907.2 910.2L900 719.2Z" fill="#3e9b6f" stroke="#ffffff"></path><path d="M900 719.2L907.2 910.2L900 668.7Z" fill="#7adaac" stroke="#ffffff"></path><path d="M900 668.7L907.2 910.2L900 644.5Z" fill="#85ddb3" stroke="#ffffff"></path><path d="M900 644.5L907.2 910.2L900 485.9Z" fill="#85ddb3" stroke="#ffffff"></path><path d="M900 485.9L907.2 910.2L900 351.1Z" fill="#8fe0b9" stroke="#ffffff"></path><path d="M900 351.1L907.2 910.2L900 279.5Z" fill="#7adaac" stroke="#ffffff"></path><path d="M900 279.5L907.2 910.2L900 274.3Z" fill="#8fe0b9" stroke="#ffffff"></path><path d="M900 274.3L907.2 910.2L900 107.6Z" fill="#43a677" stroke="#ffffff"></path><path d="M727.5 900L907.2 910.2L781.4 900Z" fill="#63d49f" stroke="#ffffff"></path><path d="M568.9 900L907.2 910.2L727.5 900Z" fill="#8fe0b9" stroke="#ffffff"></path><path d="M492.7 900L907.2 910.2L568.9 900Z" fill="#43a677" stroke="#ffffff"></path><path d="M472.1 900L907.2 910.2L492.7 900Z" fill="#6fd7a5" stroke="#ffffff"></path><path d="M348.3 900L907.2 910.2L472.1 900Z" fill="#48b07f" stroke="#ffffff"></path><path d="M323.5 900L907.2 910.2L348.3 900Z" fill="#4dbb87" stroke="#ffffff"></path><path d="M187.6 900L907.2 910.2L323.5 900Z" fill="#85ddb3" stroke="#ffffff"></path><path d="M134.8 900L907.2 910.2L187.6 900Z" fill="#52c690" stroke="#ffffff"></path><path d="M0 900L907.2 910.2L134.8 900Z" fill="#7adaac" stroke="#ffffff"></path><path d="M907.2 910.2L900 60.8L900 107.6Z" fill="#3e9b6f" stroke="#ffffff"></path><path d="M900 107.6L900 60.8L870.2 97.8Z" fill="#43a677" stroke="#ffffff"></path><path d="M900 60.8L875.2 0L870.2 97.8Z" fill="#85ddb3" stroke="#ffffff"></path><path d="M712.5 0L875.2 0L346.3 -15.2Z" fill="#4dbb87" stroke="#ffffff"></path><path d="M907.2 910.2L900 0L900 60.8Z" fill="#8fe0b9" stroke="#ffffff"></path><path d="M900 60.8L900 0L875.2 0Z" fill="#48b07f" stroke="#ffffff"></path><path d="M875.2 0L900 0L346.3 -15.2Z" fill="#8fe0b9" stroke="#ffffff"></path></g></svg>